<svg width="191" height="193" viewBox="0 0 191 193" fill="none" xmlns="http://www.w3.org/2000/svg">
<path d="M79.8861 191.416C82.2307 191.034 83.8535 188.833 83.8535 186.455V137.551L60.4889 103.778C58.5506 101.159 56.359 98.1955 51.5383 97.485C47.1599 96.8225 42.5663 97.8869 39.2513 100.341C39.0243 100.509 38.8307 100.695 38.6132 100.87L29.861 67.7333L29.5264 66.8387C29.0986 65.9728 28.6087 65.1739 28.0542 64.4252C23.463 58.2084 15.1028 56.1943 8.18374 59.6484C4.27609 61.5883 -1.90923 66.7837 0.588318 79.7842C4.01558 97.6357 13.3175 141.644 13.4131 142.086C13.4131 142.086 13.0283 143.854 17.1869 147.904L42.1624 167.042V187.254C42.1624 189.632 43.7852 191.833 46.1298 192.215C49.1173 192.703 51.7009 190.409 51.7009 187.508V162.325L23.2503 140.543C22.9683 140.292 22.8344 140.11 22.6624 139.737C21.747 135.413 13.1956 94.8754 9.94995 77.9855C8.72866 71.6156 10.2606 68.1065 14.5053 67.6114C16.6109 67.3674 18.7738 68.1783 20.1409 69.8C20.3871 70.0919 20.5902 70.3813 20.7767 70.7066C20.7767 70.7066 33.1569 117.02 34.2228 117.786L46.7655 137.087C48.2784 139.235 51.2491 139.761 53.4073 138.247C55.5631 136.733 56.0841 133.755 54.5712 131.595L42.9797 113.581C42.2078 112.382 41.9281 110.079 44.9228 108.015C46.2134 107.125 48.2617 106.644 50.1282 106.924C50.8739 107.036 74.315 140.534 74.315 140.534V186.709C74.315 189.611 76.8986 191.904 79.8861 191.416Z" fill="black"/>
<path d="M182.826 59.6484C175.9 56.1991 167.542 58.2084 162.948 64.4252C162.391 65.1811 161.906 65.9776 161.478 66.8387L152.174 101.76C151.682 101.286 151.266 100.762 150.697 100.341C147.339 97.8558 143.164 96.8368 138.962 97.4803C134.631 98.1141 130.588 100.468 128.155 103.754L102.928 137.453V186.709C102.928 189.347 105.062 191.481 107.696 191.481C110.33 191.481 112.464 189.347 112.464 186.709V140.632L135.8 109.455C136.742 108.187 138.525 107.189 140.365 106.919C141.572 106.747 143.247 106.941 145.021 108.015C148.321 110.014 147.8 113.916 147.373 115.375L146.314 117.508L136.426 131.595C134.913 133.753 135.435 136.731 137.588 138.247C139.741 139.766 142.714 139.235 144.232 137.087L154.327 122.704L158.663 114.081C158.663 114.081 170.474 70.2952 170.613 70.1038C172.453 67.6185 175.797 66.8268 178.581 68.1974C181.213 69.5082 182.042 72.7972 181.05 77.9855C177.654 95.6552 168.452 139.197 168.256 139.967L168.244 139.986C168.194 140.075 139.302 162.325 139.302 162.325V187.508C139.302 190.146 141.436 192.28 144.07 192.28C146.703 192.28 148.838 190.146 148.838 187.508V167.037L174.074 147.691C175.003 146.866 177.587 142.089 177.587 142.089C177.683 141.646 186.984 97.6381 190.412 79.7866C192.909 66.7837 186.726 61.5859 182.826 59.6484Z" fill="black"/>
<path d="M95.3972 110.014C99.422 110.014 102.923 107.577 104.319 103.798L110.43 87.2329L126.993 81.0998C130.764 79.7053 133.205 76.201 133.205 72.1753C133.205 68.1472 130.764 64.6429 126.993 63.2507L110.447 57.132L104.319 40.5531C102.921 36.7737 99.4196 34.3362 95.3972 34.3362C91.3725 34.3362 87.8711 36.7737 86.4754 40.5531L80.3641 57.1177L63.8014 63.2507C60.03 64.6453 57.5898 68.1496 57.5898 72.1753C57.5898 76.2034 60.03 79.7077 63.8014 81.0998L80.3474 87.2186L86.4754 103.798C87.8711 107.577 91.3749 110.014 95.3972 110.014ZM67.1092 72.1944L83.6862 66.0566C86.2889 65.0878 88.3348 63.0355 89.2932 60.4354L95.3757 43.8564L101.504 60.4354C102.467 63.0355 104.51 65.0878 107.125 66.0613L123.688 72.149L107.111 78.2869C104.515 79.2556 102.472 81.3032 101.504 83.9081L95.4307 100.463C95.4307 100.468 95.4235 100.468 95.414 100.468L89.2932 83.9033C88.33 81.3032 86.2842 79.2556 83.6719 78.2821L67.1092 72.1944Z" fill="black"/>
<path d="M139.282 15.8628L129.445 19.5082C126.35 20.654 124.352 23.5316 124.352 26.8302C124.352 30.1311 126.35 33.0063 129.448 34.1521L139.282 37.7975L142.925 47.6406C144.07 50.7406 146.942 52.7403 150.241 52.7403C153.539 52.7403 156.412 50.7406 157.556 47.6406L161.199 37.7975L171.036 34.1521C174.131 33.0063 176.129 30.1287 176.129 26.8302C176.129 23.5292 174.131 20.654 171.034 19.5082L161.199 15.8628L157.556 6.01976C156.409 2.91973 153.539 0.920013 150.241 0.920013C146.942 0.920013 144.07 2.91973 142.925 6.01976L139.282 15.8628ZM147.951 19.9221L150.241 13.7316L152.528 19.9125C153.314 22.0557 154.997 23.7445 157.138 24.5362L163.328 26.8302L157.138 29.1241C154.997 29.9158 153.314 31.6046 152.533 33.7383L150.241 39.9288L147.953 33.743C147.165 31.5998 145.484 29.9158 143.343 29.1241L137.153 26.8302L143.343 24.5362C145.484 23.7445 147.162 22.0629 147.951 19.9221Z" fill="black"/>
<path d="M29.2994 34.1521L39.1342 37.7975L42.7766 47.6406C43.9214 50.7406 46.7942 52.7403 50.0924 52.7403C53.3906 52.7403 56.2634 50.7406 57.4082 47.6406L61.0505 37.7975L70.8878 34.1521C73.9828 33.0063 75.9809 30.1287 75.9809 26.8302C75.9809 23.5292 73.9828 20.654 70.8854 19.5082L61.0505 15.8628L57.4082 6.01976C56.2658 2.91973 53.393 0.920013 50.0948 0.920013C46.7966 0.920013 43.9238 2.91973 42.779 6.01976L39.1366 15.8628L29.297 19.5082C26.2019 20.654 24.2039 23.5316 24.2039 26.8302C24.2063 30.1311 26.2043 33.0063 29.2994 34.1521ZM43.1972 24.5362C45.3387 23.7445 47.0188 22.0605 47.8052 19.9221L50.0948 13.7316L52.382 19.9125C53.1683 22.0557 54.8509 23.7445 56.9923 24.5362L63.1824 26.8302L56.9923 29.1241C54.8509 29.9158 53.1683 31.6046 52.3868 33.7383L50.0948 39.9288L47.8075 33.743C47.0188 31.5998 45.3387 29.9158 43.1972 29.1241L37.0071 26.8302L43.1972 24.5362Z" fill="black"/>
</svg>
