<svg width="362" height="362" fill="none" xmlns="http://www.w3.org/2000/svg"><path d="M181-.004C81.207-.004.016 81.106.016 180.8c0 99.693 81.191 180.804 180.984 180.804 99.792 0 180.984-81.111 180.984-180.804S280.792-.004 181-.004zm0 325.464c-79.841 0-144.804-64.894-144.804-144.66 0-79.766 64.963-144.66 144.804-144.66 79.841 0 144.804 64.898 144.804 144.66S260.841 325.46 181 325.46z" fill="#000"/><path d="M198.805 175.579c.144-.923.285-1.847.285-2.811V93.95c0-9.98-8.1-18.072-18.09-18.072s-18.09 8.092-18.09 18.072v78.818c0 1.538-.193 19.032 5.487 24.12l55.979 50.132a18.016 18.016 0 0012.068 4.614c4.961 0 9.905-2.028 13.479-6.008 6.669-7.433 6.046-18.855-1.395-25.517l-49.723-44.53z" fill="#000"/></svg>