<svg width="362" height="362" viewBox="0 0 362 362" fill="none" xmlns="http://www.w3.org/2000/svg">
<path d="M181 -0.0043335C81.2075 -0.0043335 0.0155792 81.1068 0.0155792 180.8C0.0155792 280.493 81.2075 361.604 181 361.604C280.792 361.604 361.984 280.493 361.984 180.8C361.984 81.1068 280.792 -0.0043335 181 -0.0043335ZM181 325.46C101.159 325.46 36.1956 260.566 36.1956 180.8C36.1956 101.034 101.159 36.1397 181 36.1397C260.841 36.1397 325.804 101.038 325.804 180.8C325.804 260.562 260.841 325.46 181 325.46Z" fill="black"/>
<path d="M198.805 175.579C198.949 174.656 199.09 173.732 199.09 172.768V93.95C199.09 83.9702 190.99 75.878 181 75.878C171.01 75.878 162.91 83.9702 162.91 93.95V172.768C162.91 174.306 162.717 191.8 168.397 196.888L224.376 247.02C227.829 250.116 232.146 251.634 236.444 251.634C241.405 251.634 246.349 249.606 249.923 245.626C256.592 238.193 255.969 226.771 248.528 220.109L198.805 175.579Z" fill="black"/>
</svg>
