<svg width="213" height="214" viewBox="0 0 213 214" fill="none" xmlns="http://www.w3.org/2000/svg">
<g clip-path="url(#clip0_9_12)">
<path fill-rule="evenodd" clip-rule="evenodd" d="M82.4074 160.139H22.4375C9.77078 160.139 -0.488632 149.874 -0.488632 137.222V22.6389C-0.488632 9.97741 9.77078 -0.277771 22.4375 -0.277771H190.563C203.229 -0.277771 213.489 9.97741 213.489 22.6389V137.222C213.489 149.874 203.229 160.139 190.563 160.139H130.593L136.057 198.333H152.354C156.576 198.333 159.996 201.761 159.996 205.972C159.996 210.193 156.576 213.611 152.354 213.611H60.649C56.4266 213.611 53.0069 210.193 53.0069 205.972C53.0069 201.761 56.4266 198.333 60.649 198.333H76.9457L82.4074 160.139ZM22.4375 144.861H190.563C194.785 144.861 198.205 141.443 198.205 137.222V22.6389C198.205 18.4183 194.785 15 190.563 15H22.4375C18.2152 15 14.7955 18.4183 14.7955 22.6389V137.222C14.7955 141.443 18.2152 144.861 22.4375 144.861ZM68.2898 79.6922L65.5386 81.9839C62.3004 84.6767 57.4762 84.2374 54.7826 81.0004C52.0696 77.7635 52.5186 72.9413 55.7569 70.2488L75.9319 53.4337V37.9171C75.9319 33.706 79.3516 30.2782 83.574 30.2782C87.7963 30.2782 91.216 33.706 91.216 37.9171V40.7052L91.8178 40.1991C100.329 33.1141 112.671 33.1141 121.183 40.1991L157.244 70.2487C160.482 72.9415 160.931 77.7634 158.218 81.0003C155.524 84.2373 150.7 84.6765 147.462 81.9838L144.711 79.6922V99.0282C144.711 111.69 134.451 121.945 121.785 121.945H91.2163C78.5496 121.945 68.2902 111.69 68.2902 99.0282L68.2898 79.6922ZM129.561 67.0593L111.392 51.9343C108.554 49.5758 104.447 49.5758 101.61 51.9343L83.4408 67.0593C83.5268 67.5272 83.5746 67.9951 83.5746 68.4725V99.0281C83.5746 103.249 86.9943 106.667 91.2166 106.667H121.785C126.007 106.667 129.427 103.249 129.427 99.0281V68.4725C129.427 67.9951 129.475 67.5272 129.561 67.0593ZM120.62 198.333L115.155 160.139H97.8463L92.3821 198.333H120.62Z" fill="black"/>
</g>
<defs>
<clipPath id="clip0_9_12">
<rect width="213" height="214" fill="white"/>
</clipPath>
</defs>
</svg>
