<svg xmlns="http://www.w3.org/2000/svg" xmlns:xlink="http://www.w3.org/1999/xlink" version="1.1" x="0px" y="0px" viewBox="0 0 100 125" enable-background="new 0 0 100 100" xml:space="preserve"><rect x="0" y="0" fill="none" width="100" height="100"/><g><path d="M43.467,89.639c0.981-0.16,1.66-1.08,1.66-2.074V67.12l-9.776-14.119c-0.811-1.095-1.728-2.334-3.745-2.631   c-1.832-0.277-3.754,0.168-5.141,1.194c-0.095,0.07-0.176,0.148-0.267,0.221l-3.662-13.853l-0.14-0.374   c-0.179-0.362-0.384-0.696-0.616-1.009c-1.921-2.599-5.419-3.441-8.314-1.997c-1.635,0.811-4.223,2.983-3.178,8.418   c1.434,7.463,5.326,25.861,5.366,26.046c0,0-0.161,0.739,1.579,2.432l10.45,8.001l0,8.45c0,0.994,0.679,1.914,1.66,2.074   c1.25,0.204,2.331-0.755,2.331-1.968V77.477l-11.904-9.106c-0.118-0.105-0.174-0.181-0.246-0.337   c-0.383-1.808-3.961-18.755-5.319-25.816c-0.511-2.663,0.13-4.13,1.906-4.337c0.881-0.102,1.786,0.237,2.358,0.915   c0.103,0.122,0.188,0.243,0.266,0.379c0,0,5.18,19.362,5.626,19.682l5.248,8.069c0.633,0.898,1.876,1.118,2.779,0.485   c0.902-0.633,1.12-1.878,0.487-2.781l-4.85-7.531c-0.323-0.501-0.44-1.464,0.813-2.327c0.54-0.372,1.397-0.573,2.178-0.456   c0.312,0.047,10.12,14.051,10.12,14.051v19.304C41.136,88.884,42.217,89.843,43.467,89.639z"/><path d="M86.538,34.552c-2.898-1.442-6.395-0.602-8.317,1.997c-0.233,0.316-0.436,0.649-0.615,1.009l-3.893,14.599   c-0.206-0.198-0.38-0.417-0.618-0.593c-1.405-1.039-3.152-1.465-4.91-1.196c-1.812,0.265-3.504,1.249-4.522,2.623L53.108,67.079   v20.592c0,1.103,0.893,1.995,1.995,1.995s1.995-0.892,1.995-1.995V68.408l9.764-13.034c0.394-0.53,1.14-0.947,1.91-1.06   c0.505-0.072,1.206,0.009,1.948,0.458c1.381,0.836,1.163,2.467,0.984,3.077l-0.443,0.892l-4.137,5.889   c-0.633,0.902-0.415,2.147,0.486,2.781c0.901,0.635,2.145,0.413,2.78-0.485l4.224-6.013l1.814-3.605c0,0,4.942-18.305,5-18.385   c0.77-1.039,2.169-1.37,3.334-0.797c1.101,0.548,1.448,1.923,1.033,4.092c-1.421,7.387-5.271,25.59-5.353,25.912l-0.005,0.008   c-0.021,0.037-12.11,9.339-12.11,9.339v10.528c0,1.103,0.893,1.995,1.995,1.995c1.102,0,1.995-0.892,1.995-1.995v-8.558   l10.559-8.088c0.389-0.345,1.47-2.342,1.47-2.342c0.04-0.185,3.932-18.583,5.366-26.046C90.757,37.535,88.17,35.362,86.538,34.552z   "/><path d="M49.957,55.608c1.684,0,3.149-1.019,3.733-2.599l2.557-6.925l6.93-2.564c1.578-0.583,2.599-2.048,2.599-3.731   c0-1.684-1.021-3.149-2.599-3.731l-6.923-2.558l-2.564-6.931c-0.585-1.58-2.05-2.599-3.733-2.599c-1.684,0-3.149,1.019-3.733,2.599   l-2.557,6.925l-6.93,2.564c-1.578,0.583-2.599,2.048-2.599,3.731c0,1.684,1.021,3.149,2.599,3.731l6.923,2.558l2.564,6.931   C46.808,54.589,48.274,55.608,49.957,55.608z M38.121,39.797l6.936-2.566c1.089-0.405,1.945-1.263,2.346-2.35l2.545-6.931   l2.564,6.931c0.403,1.087,1.258,1.945,2.352,2.352l6.93,2.545l-6.936,2.566c-1.086,0.405-1.941,1.261-2.346,2.35l-2.541,6.921   c0,0.002-0.003,0.002-0.007,0.002l-2.561-6.925c-0.403-1.087-1.259-1.943-2.352-2.35L38.121,39.797z"/><path d="M68.319,16.247l-4.116,1.524c-1.295,0.479-2.131,1.682-2.131,3.061c0,1.38,0.836,2.582,2.132,3.061l4.115,1.524   l1.524,4.115c0.479,1.296,1.681,2.132,3.061,2.132s2.582-0.836,3.061-2.132l1.524-4.115l4.116-1.524   c1.295-0.479,2.131-1.682,2.131-3.061c0-1.38-0.836-2.582-2.132-3.061l-4.115-1.524l-1.524-4.115   C75.485,10.836,74.284,10,72.904,10s-2.582,0.836-3.061,2.132L68.319,16.247z M71.946,17.944l0.958-2.588l0.957,2.584   c0.329,0.896,1.033,1.602,1.929,1.933l2.59,0.959l-2.59,0.959c-0.896,0.331-1.6,1.037-1.927,1.929l-0.959,2.588l-0.957-2.586   c-0.33-0.896-1.033-1.6-1.929-1.931l-2.59-0.959l2.59-0.959C70.914,19.542,71.616,18.839,71.946,17.944z"/><path d="M22.301,23.893l4.115,1.524l1.524,4.115c0.479,1.296,1.681,2.132,3.061,2.132s2.582-0.836,3.061-2.132l1.524-4.115   l4.116-1.524c1.295-0.479,2.131-1.682,2.131-3.061c0-1.38-0.836-2.582-2.132-3.061l-4.115-1.524l-1.524-4.115   C33.584,10.836,32.382,10,31.002,10s-2.582,0.836-3.061,2.132l-1.524,4.115L22.3,17.771c-1.295,0.479-2.131,1.682-2.131,3.061   C20.17,22.212,21.006,23.414,22.301,23.893z M28.116,19.873c0.896-0.331,1.599-1.035,1.928-1.929l0.958-2.588l0.957,2.584   c0.329,0.896,1.033,1.602,1.929,1.933l2.59,0.959l-2.59,0.959c-0.896,0.331-1.6,1.037-1.927,1.929l-0.959,2.588l-0.957-2.586   c-0.33-0.896-1.033-1.6-1.929-1.931l-2.59-0.959L28.116,19.873z"/></g><text x="0" y="115" fill="#000000" font-size="5px" font-weight="bold" font-family="'Helvetica Neue', Helvetica, Arial-Unicode, Arial, Sans-serif">Created by Prashanth Rapolu</text><text x="0" y="120" fill="#000000" font-size="5px" font-weight="bold" font-family="'Helvetica Neue', Helvetica, Arial-Unicode, Arial, Sans-serif">from the Noun Project</text></svg>